<?xml version="1.0" encoding="utf-8"?>
<!-- Generator: Adobe Illustrator 23.0.1, SVG Export Plug-In . SVG Version: 6.00 Build 0)  -->
<svg version="1.1" id="Capa_1" xmlns="http://www.w3.org/2000/svg" xmlns:xlink="http://www.w3.org/1999/xlink" x="0px" y="0px"
	 viewBox="0 0 477.9 477.9" style="enable-background:new 0 0 477.9 477.9;" xml:space="preserve">
<style type="text/css">
	.st0{fill:#FFFFFF;}
</style>
<g>
	<g>
		<path class="st0" d="M426.7,0H204.8c-28.3,0-51.2,22.9-51.2,51.2v102.4c0,9.4,7.6,17.1,17.1,17.1s17.1-7.6,17.1-17.1V51.2
			c0-9.4,7.6-17.1,17.1-17.1h221.9c9.4,0,17.1,7.6,17.1,17.1v375.5c0,9.4-7.6,17.1-17.1,17.1H204.8c-9.4,0-17.1-7.6-17.1-17.1V324.3
			c0-9.4-7.6-17.1-17.1-17.1s-17.1,7.6-17.1,17.1v102.4c0,28.3,22.9,51.2,51.2,51.2h221.9c28.3,0,51.2-22.9,51.2-51.2V51.2
			C477.9,22.9,454.9,0,426.7,0z"/>
	</g>
</g>
<g>
	<g>
		<path class="st0" d="M341.3,221.9H58.3l56.2-56.2c6.5-6.8,6.4-17.6-0.4-24.1c-6.6-6.4-17.1-6.4-23.7,0L5,226.9
			c-1.6,1.6-2.8,3.5-3.7,5.5c-1.7,4.2-1.7,8.9,0,13c0.9,2.1,2.1,4,3.7,5.6l85.3,85.3c6.5,6.8,17.4,7,24.1,0.4
			c6.8-6.5,7-17.4,0.4-24.1c-0.1-0.1-0.3-0.3-0.4-0.4L58.3,256h283.1c9.4,0,17.1-7.6,17.1-17.1S350.7,221.9,341.3,221.9z"/>
	</g>
</g>
</svg>
