<?xml version="1.0" encoding="utf-8"?>
<!-- Generator: Adobe Illustrator 23.0.1, SVG Export Plug-In . SVG Version: 6.00 Build 0)  -->
<svg version="1.1" id="Capa_1" xmlns="http://www.w3.org/2000/svg" xmlns:xlink="http://www.w3.org/1999/xlink" x="0px" y="0px"
	 viewBox="0 0 456.6 456.6" style="enable-background:new 0 0 456.6 456.6;" xml:space="preserve">
<style type="text/css">
	.st0{fill:#FFFFFF;}
</style>
<g>
	<path class="st0" d="M97.6,79.4H13.4C6,79.4,0,73.4,0,66s6-13.4,13.4-13.4h84.1c7.4,0,13.4,6,13.4,13.4S105,79.4,97.6,79.4z"/>
	<path class="st0" d="M145.6,127.5c-33.9,0-61.5-27.6-61.5-61.5c0-33.9,27.6-61.5,61.5-61.5s61.5,27.6,61.5,61.5
		C207.1,99.9,179.6,127.5,145.6,127.5z M145.6,31.4C126.5,31.4,111,46.9,111,66s15.5,34.6,34.7,34.6s34.7-15.5,34.7-34.6
		S164.8,31.4,145.6,31.4z"/>
	<path class="st0" d="M443.1,79.4H242.4c-7.4,0-13.4-6-13.4-13.4s6-13.4,13.4-13.4h200.7c7.4,0,13.4,6,13.4,13.4
		S450.5,79.4,443.1,79.4z"/>
	<path class="st0" d="M325.9,289.8c-33.9,0-61.5-27.6-61.5-61.5s27.6-61.5,61.5-61.5s61.5,27.6,61.5,61.5S359.9,289.8,325.9,289.8z
		 M325.9,193.6c-19.1,0-34.7,15.5-34.7,34.6s15.5,34.6,34.7,34.6s34.7-15.5,34.7-34.6S345,193.6,325.9,193.6z"/>
	<path class="st0" d="M229.1,241.7H13.4c-7.4,0-13.4-6-13.4-13.4s6-13.4,13.4-13.4h215.7c7.4,0,13.4,6,13.4,13.4
		S236.6,241.7,229.1,241.7z"/>
	<path class="st0" d="M443.1,241.7H374c-7.4,0-13.4-6-13.4-13.4s6-13.4,13.4-13.4h69.1c7.4,0,13.4,6,13.4,13.4
		S450.5,241.7,443.1,241.7z"/>
	<path class="st0" d="M130.6,452.1c-33.9,0-61.5-27.6-61.5-61.5c0-33.9,27.6-61.5,61.5-61.5s61.5,27.6,61.5,61.5
		C192.1,424.5,164.5,452.1,130.6,452.1z M130.6,355.9c-19.1,0-34.7,15.5-34.7,34.6s15.5,34.7,34.7,34.7s34.7-15.5,34.7-34.7
		S149.7,355.9,130.6,355.9z"/>
	<path class="st0" d="M443.1,404H227.4c-7.4,0-13.4-6-13.4-13.4s6-13.4,13.4-13.4h215.7c7.4,0,13.4,6,13.4,13.4S450.5,404,443.1,404
		z"/>
	<path class="st0" d="M82.5,404H13.4C6,404,0,398,0,390.5c0-7.4,6-13.4,13.4-13.4h69.1c7.4,0,13.4,6,13.4,13.4
		C96,398,90,404,82.5,404z"/>
</g>
</svg>
