<?xml version="1.0" encoding="utf-8"?>
<!-- Generator: Adobe Illustrator 23.0.1, SVG Export Plug-In . SVG Version: 6.00 Build 0)  -->
<svg version="1.1" id="Calque_1" xmlns="http://www.w3.org/2000/svg" xmlns:xlink="http://www.w3.org/1999/xlink" x="0px" y="0px"
	 viewBox="0 0 512 512" style="enable-background:new 0 0 512 512;" xml:space="preserve">
<style type="text/css">
	.st0{fill:#FFFFFF;}
</style>
<path class="st0" d="M437,75C388.7,26.6,324.4,0,256,0C187.6,0,123.3,26.6,75,75S0,187.6,0,256c0,68.4,26.6,132.7,75,181
	s112.6,75,181,75c68.4,0,132.7-26.6,181-75s75-112.6,75-181C512,187.6,485.4,123.3,437,75z M128.3,442.4
	C139,380.7,192.5,335.3,256,335.3c63.5,0,117,45.5,127.7,107.1c-36.3,25-80.3,39.6-127.7,39.6S164.7,467.4,128.3,442.4z
	 M174.6,223.9c0-44.9,36.5-81.4,81.4-81.4s81.4,36.5,81.4,81.4s-36.5,81.4-81.4,81.4S174.6,268.8,174.6,223.9z M409.6,421.6
	c-8.1-28.7-24.1-54.7-46.6-75.1c-13.8-12.5-29.5-22.3-46.4-29.3c30.5-19.9,50.7-54.3,50.7-93.4c0-61.4-50-111.4-111.4-111.4
	s-111.4,50-111.4,111.4c0,39.1,20.2,73.5,50.7,93.4c-16.9,6.9-32.6,16.8-46.4,29.3c-22.5,20.3-38.5,46.4-46.6,75.1
	C57.9,380.3,30,321.3,30,256C30,131.4,131.4,30,256,30s226,101.4,226,226C482,321.3,454.1,380.3,409.6,421.6z"/>
</svg>
